<?xml version="1.0" encoding="utf-8"?>
<!-- Generator: Adobe Illustrator 22.1.0, SVG Export Plug-In . SVG Version: 6.00 Build 0)  -->
<svg version="1.1" id="Layer_1" xmlns="http://www.w3.org/2000/svg" xmlns:xlink="http://www.w3.org/1999/xlink" x="0px" y="0px"
	 viewBox="0 0 900 10" style="enable-background:new 0 0 900 10;" xml:space="preserve">
<style type="text/css">
	.st0{fill:#999999;}
</style>
<g>
	<path class="st0" d="M899.8,9.3l-3.3-8.7h0.8l3.3,8.7H899.8z"/>
	<path class="st0" d="M895.7,9.3l-3.3-8.7h0.8l3.3,8.7H895.7z"/>
	<path class="st0" d="M891.6,9.3l-3.3-8.7h0.8l3.3,8.7H891.6z"/>
	<path class="st0" d="M888.3,9.4h-0.8l-3.4-8.7h0.8L888.3,9.4L888.3,9.4z"/>
	<path class="st0" d="M883.4,9.3L880,0.6h0.8l3.3,8.7H883.4z"/>
	<path class="st0" d="M879.3,9.3l-3.4-8.7h0.8l3.3,8.7H879.3z"/>
	<path class="st0" d="M875.2,9.3l-3.4-8.7h0.8l3.3,8.7H875.2z"/>
	<path class="st0" d="M871.1,9.3l-3.4-8.7h0.8l3.3,8.7H871.1z"/>
	<path class="st0" d="M866.9,9.3l-3.3-8.7h0.8l3.3,8.7H866.9z"/>
	<path class="st0" d="M862.9,9.3l-3.4-8.7h0.8l3.3,8.7H862.9z"/>
	<path class="st0" d="M858.7,9.3l-3.4-8.7h0.8l3.3,8.7H858.7z"/>
	<path class="st0" d="M854.6,9.3l-3.4-8.7h0.8l3.3,8.7H854.6z"/>
	<path class="st0" d="M851.2,9.4h-0.7l-3.4-8.7h0.8L851.2,9.4L851.2,9.4z"/>
	<path class="st0" d="M846.3,9.3l-3.4-8.7h0.9l3.3,8.7H846.3z"/>
	<path class="st0" d="M842.3,9.3l-3.4-8.7h0.8l3.3,8.7H842.3z"/>
	<path class="st0" d="M838.2,9.3l-3.4-8.7h0.8l3.3,8.7H838.2z"/>
	<path class="st0" d="M834.1,9.3l-3.4-8.7h0.8l3.3,8.7H834.1z"/>
	<path class="st0" d="M829.9,9.3l-3.4-8.7h0.8l3.3,8.7H829.9z"/>
	<path class="st0" d="M825.8,9.3l-3.4-8.7h0.8l3.3,8.7H825.8z"/>
	<path class="st0" d="M821.7,9.3l-3.4-8.7h0.8l3.3,8.7H821.7z"/>
	<path class="st0" d="M818.3,9.4h-0.8l-3.4-8.7h0.8L818.3,9.4L818.3,9.4z"/>
	<path class="st0" d="M813.5,9.3l-3.4-8.7h0.8l3.3,8.7H813.5z"/>
	<path class="st0" d="M809.3,9.3l-3.4-8.7h0.9l3.3,8.7H809.3z"/>
	<path class="st0" d="M805.2,9.3l-3.4-8.7h0.8l3.3,8.7H805.2z"/>
	<path class="st0" d="M801.1,9.3l-3.4-8.7h0.8l3.3,8.7H801.1z"/>
	<path class="st0" d="M796.9,9.3l-3.3-8.7h0.8l3.3,8.7H796.9z"/>
	<path class="st0" d="M792.9,9.3l-3.4-8.7h0.8l3.3,8.7H792.9z"/>
	<path class="st0" d="M788.8,9.3l-3.4-8.7h0.8l3.3,8.7H788.8z"/>
	<path class="st0" d="M784.7,9.3l-3.4-8.7h0.8l3.3,8.7H784.7z"/>
	<path class="st0" d="M780.5,9.3l-3.4-8.7h0.8l3.3,8.7H780.5z"/>
	<path class="st0" d="M776.4,9.3L773,0.6h0.8l3.3,8.7H776.4z"/>
	<path class="st0" d="M772.3,9.3l-3.4-8.7h0.8l3.3,8.7H772.3z"/>
	<path class="st0" d="M768.2,9.3l-3.4-8.7h0.8l3.3,8.7H768.2z"/>
	<path class="st0" d="M764.1,9.3l-3.4-8.7h0.8l3.3,8.7H764.1z"/>
	<path class="st0" d="M759.9,9.3l-3.3-8.7h0.8l3.3,8.7H759.9z"/>
	<path class="st0" d="M755.9,9.3l-3.4-8.7h0.8l3.3,8.7H755.9z"/>
	<path class="st0" d="M751.7,9.3l-3.4-8.7h0.8l3.3,8.7H751.7z"/>
	<path class="st0" d="M747.6,9.3l-3.4-8.7h0.8l3.3,8.7H747.6z"/>
	<path class="st0" d="M743.5,9.3l-3.4-8.7h0.8l3.3,8.7H743.5z"/>
	<path class="st0" d="M739.4,9.3L736,0.6h0.8l3.3,8.7H739.4z"/>
	<path class="st0" d="M735.3,9.3l-3.4-8.7h0.8l3.3,8.7H735.3z"/>
	<path class="st0" d="M731.2,9.3l-3.4-8.7h0.8l3.3,8.7H731.2z"/>
	<path class="st0" d="M726.9,9.3l-3.3-8.7h0.8l3.3,8.7H726.9z"/>
	<path class="st0" d="M722.9,9.3l-3.4-8.7h0.8l3.3,8.7H722.9z"/>
	<path class="st0" d="M718.8,9.3l-3.4-8.7h0.8l3.3,8.7H718.8z"/>
	<path class="st0" d="M714.7,9.3l-3.4-8.7h0.8l3.3,8.7H714.7z"/>
	<path class="st0" d="M710.6,9.3l-3.4-8.7h0.8l3.3,8.7H710.6z"/>
	<path class="st0" d="M706.5,9.3l-3.4-8.7h0.8l3.3,8.7H706.5z"/>
	<path class="st0" d="M702.3,9.3l-3.4-8.7h0.8l3.3,8.7H702.3z"/>
	<path class="st0" d="M698.2,9.3l-3.4-8.7h0.8l3.3,8.7H698.2z"/>
	<path class="st0" d="M694.1,9.3l-3.4-8.7h0.8l3.3,8.7H694.1z"/>
	<path class="st0" d="M689.9,9.3l-3.3-8.7h0.8l3.3,8.7H689.9z"/>
	<path class="st0" d="M685.9,9.3l-3.4-8.7h0.8l3.3,8.7H685.9z"/>
	<path class="st0" d="M681.8,9.3l-3.4-8.7h0.8l3.3,8.7H681.8z"/>
	<path class="st0" d="M677.7,9.3l-3.4-8.7h0.8l3.3,8.7H677.7z"/>
	<path class="st0" d="M673.5,9.3l-3.4-8.7h0.8l3.3,8.7H673.5z"/>
	<path class="st0" d="M669.4,9.3L666,0.6h0.8l3.3,8.7H669.4z"/>
	<path class="st0" d="M665.3,9.3l-3.4-8.7h0.8l3.3,8.7H665.3z"/>
	<path class="st0" d="M661.2,9.3l-3.4-8.7h0.8l3.3,8.7H661.2z"/>
	<path class="st0" d="M657.1,9.3l-3.4-8.7h0.8l3.3,8.7H657.1z"/>
	<path class="st0" d="M652.9,9.3l-3.3-8.7h0.8l3.3,8.7H652.9z"/>
	<path class="st0" d="M648.8,9.3l-3.4-8.7h0.8l3.3,8.7H648.8z"/>
	<path class="st0" d="M644.7,9.3l-3.4-8.7h0.8l3.3,8.7H644.7z"/>
	<path class="st0" d="M640.6,9.3l-3.4-8.7h0.8l3.3,8.7H640.6z"/>
	<path class="st0" d="M636.5,9.3l-3.4-8.7h0.8l3.3,8.7H636.5z"/>
	<path class="st0" d="M632.4,9.3L629,0.6h0.8l3.3,8.7H632.4z"/>
	<path class="st0" d="M628.3,9.3l-3.4-8.7h0.8l3.3,8.7H628.3z"/>
	<path class="st0" d="M624.1,9.3l-3.4-8.7h0.8l3.3,8.7H624.1z"/>
	<path class="st0" d="M619.9,9.3l-3.3-8.7h0.8l3.3,8.7H619.9z"/>
	<path class="st0" d="M615.9,9.3l-3.4-8.7h0.8l3.3,8.7H615.9z"/>
	<path class="st0" d="M611.8,9.3l-3.4-8.7h0.8l3.3,8.7H611.8z"/>
	<path class="st0" d="M607.7,9.3l-3.4-8.7h0.8l3.3,8.7H607.7z"/>
	<path class="st0" d="M603.6,9.3l-3.4-8.7h0.8l3.3,8.7H603.6z"/>
	<path class="st0" d="M599.5,9.3l-3.4-8.7h0.8l3.3,8.7H599.5z"/>
	<path class="st0" d="M595.3,9.3l-3.4-8.7h0.8l3.3,8.7H595.3z"/>
	<path class="st0" d="M591.2,9.3l-3.4-8.7h0.8l3.3,8.7H591.2z"/>
	<path class="st0" d="M587.1,9.3l-3.4-8.7h0.8l3.3,8.7H587.1z"/>
	<path class="st0" d="M582.9,9.3l-3.3-8.7h0.8l3.3,8.7H582.9z"/>
	<path class="st0" d="M578.9,9.3l-3.4-8.7h0.8l3.3,8.7H578.9z"/>
	<path class="st0" d="M574.8,9.3l-3.4-8.7h0.8l3.3,8.7H574.8z"/>
	<path class="st0" d="M570.6,9.3l-3.4-8.7h0.8l3.3,8.7H570.6z"/>
	<path class="st0" d="M566.5,9.3l-3.4-8.7h0.8l3.3,8.7H566.5z"/>
	<path class="st0" d="M562.4,9.3L559,0.6h0.8l3.3,8.7H562.4z"/>
	<path class="st0" d="M558.3,9.3l-3.4-8.7h0.8l3.3,8.7H558.3z"/>
	<path class="st0" d="M554.2,9.3l-3.4-8.7h0.8l3.3,8.7H554.2z"/>
	<path class="st0" d="M550.1,9.3l-3.4-8.7h0.8l3.3,8.7H550.1z"/>
	<path class="st0" d="M545.9,9.3l-3.4-8.7h0.8l3.3,8.7H545.9z"/>
	<path class="st0" d="M541.8,9.3l-3.4-8.7h0.8l3.3,8.7H541.8z"/>
	<path class="st0" d="M537.7,9.3l-3.4-8.7h0.8l3.3,8.7H537.7z"/>
	<path class="st0" d="M533.6,9.3l-3.4-8.7h0.8l3.3,8.7H533.6z"/>
	<path class="st0" d="M529.5,9.3l-3.4-8.7h0.8l3.3,8.7H529.5z"/>
	<path class="st0" d="M525.4,9.3L522,0.6h0.8l3.3,8.7H525.4z"/>
	<path class="st0" d="M521.2,9.3l-3.4-8.7h0.8l3.3,8.7H521.2z"/>
	<path class="st0" d="M517.1,9.3l-3.4-8.7h0.8l3.3,8.7H517.1z"/>
	<path class="st0" d="M512.9,9.3l-3.3-8.7h0.8l3.3,8.7H512.9z"/>
	<path class="st0" d="M508.9,9.3l-3.4-8.7h0.8l3.3,8.7H508.9z"/>
	<path class="st0" d="M504.8,9.3l-3.4-8.7h0.8l3.3,8.7H504.8z"/>
	<path class="st0" d="M500.7,9.3l-3.4-8.7h0.8l3.3,8.7H500.7z"/>
	<path class="st0" d="M496.6,9.3l-3.4-8.7h0.8l3.3,8.7H496.6z"/>
	<path class="st0" d="M492.4,9.3L489,0.6h0.8l3.3,8.7H492.4z"/>
	<path class="st0" d="M488.3,9.3l-3.4-8.7h0.8l3.3,8.7H488.3z"/>
	<path class="st0" d="M484.2,9.3l-3.4-8.7h0.8l3.3,8.7H484.2z"/>
	<path class="st0" d="M480.1,9.3l-3.4-8.7h0.8l3.3,8.7H480.1z"/>
	<path class="st0" d="M475.9,9.3l-3.3-8.7h0.8l3.3,8.7H475.9z"/>
	<path class="st0" d="M471.9,9.3l-3.4-8.7h0.8l3.3,8.7H471.9z"/>
	<path class="st0" d="M467.7,9.3l-3.4-8.7h0.8l3.3,8.7H467.7z"/>
	<path class="st0" d="M463.6,9.3l-3.4-8.7h0.8l3.3,8.7H463.6z"/>
	<path class="st0" d="M459.5,9.3l-3.4-8.7h0.8l3.3,8.7H459.5z"/>
	<path class="st0" d="M455.4,9.3L452,0.6h0.8l3.3,8.7H455.4z"/>
	<path class="st0" d="M451.3,9.3l-3.4-8.7h0.8l3.3,8.7H451.3z"/>
	<path class="st0" d="M447.2,9.3l-3.4-8.7h0.8l3.3,8.7H447.2z"/>
	<path class="st0" d="M442.9,9.3l-3.3-8.7h0.8l3.3,8.7H442.9z"/>
	<path class="st0" d="M438.9,9.3l-3.4-8.7h0.8l3.3,8.7H438.9z"/>
	<path class="st0" d="M434.8,9.3l-3.4-8.7h0.8l3.3,8.7H434.8z"/>
	<path class="st0" d="M430.7,9.3l-3.4-8.7h0.8l3.3,8.7H430.7z"/>
	<path class="st0" d="M426.6,9.3l-3.4-8.7h0.8l3.3,8.7H426.6z"/>
	<path class="st0" d="M422.5,9.3l-3.4-8.7h0.8l3.3,8.7H422.5z"/>
	<path class="st0" d="M418.4,9.3L415,0.6h0.8l3.3,8.7H418.4z"/>
	<path class="st0" d="M414.2,9.3l-3.4-8.7h0.8l3.3,8.7H414.2z"/>
	<path class="st0" d="M410.1,9.3l-3.4-8.7h0.8l3.3,8.7H410.1z"/>
	<path class="st0" d="M405.9,9.3l-3.3-8.7h0.8l3.3,8.7H405.9z"/>
	<path class="st0" d="M401.9,9.3l-3.4-8.7h0.8l3.3,8.7H401.9z"/>
	<path class="st0" d="M397.8,9.3l-3.4-8.7h0.8l3.3,8.7H397.8z"/>
	<path class="st0" d="M393.7,9.3l-3.4-8.7h0.8l3.3,8.7H393.7z"/>
	<path class="st0" d="M389.5,9.3l-3.4-8.7h0.8l3.3,8.7H389.5z"/>
	<path class="st0" d="M385.4,9.3L382,0.6h0.8l3.3,8.7H385.4z"/>
	<path class="st0" d="M381.3,9.3l-3.4-8.7h0.8l3.3,8.7H381.3z"/>
	<path class="st0" d="M377.2,9.3l-3.4-8.7h0.8l3.3,8.7H377.2z"/>
	<path class="st0" d="M373.1,9.3l-3.4-8.7h0.8l3.3,8.7H373.1z"/>
	<path class="st0" d="M368.9,9.3l-3.3-8.7h0.8l3.3,8.7H368.9z"/>
	<path class="st0" d="M364.8,9.3l-3.4-8.7h0.8l3.3,8.7H364.8z"/>
	<path class="st0" d="M360.7,9.3l-3.4-8.7h0.8l3.3,8.7H360.7z"/>
	<path class="st0" d="M356.6,9.3l-3.4-8.7h0.8l3.3,8.7H356.6z"/>
	<path class="st0" d="M352.5,9.3l-3.4-8.7h0.8l3.3,8.7H352.5z"/>
	<path class="st0" d="M348.4,9.3L345,0.6h0.8l3.3,8.7H348.4z"/>
	<path class="st0" d="M344.3,9.3l-3.4-8.7h0.8l3.3,8.7H344.3z"/>
	<path class="st0" d="M340.2,9.3l-3.4-8.7h0.8l3.3,8.7H340.2z"/>
	<path class="st0" d="M335.9,9.3l-3.3-8.7h0.8l3.3,8.7H335.9z"/>
	<path class="st0" d="M331.9,9.3l-3.4-8.7h0.8l3.3,8.7H331.9z"/>
	<path class="st0" d="M327.8,9.3l-3.4-8.7h0.8l3.3,8.7H327.8z"/>
	<path class="st0" d="M323.7,9.3l-3.4-8.7h0.8l3.3,8.7H323.7z"/>
	<path class="st0" d="M319.6,9.3l-3.4-8.7h0.8l3.3,8.7H319.6z"/>
	<path class="st0" d="M315.5,9.3l-3.4-8.7h0.8l3.3,8.7H315.5z"/>
	<path class="st0" d="M311.3,9.3l-3.4-8.7h0.8l3.3,8.7H311.3z"/>
	<path class="st0" d="M307.2,9.3l-3.4-8.7h0.8l3.3,8.7H307.2z"/>
	<path class="st0" d="M303.1,9.3l-3.4-8.7h0.8l3.3,8.7H303.1z"/>
	<path class="st0" d="M298.9,9.3l-3.3-8.7h0.8l3.3,8.7H298.9z"/>
	<path class="st0" d="M294.9,9.3l-3.4-8.7h0.8l3.3,8.7H294.9z"/>
	<path class="st0" d="M290.8,9.3l-3.4-8.7h0.8l3.3,8.7H290.8z"/>
	<path class="st0" d="M286.6,9.3l-3.4-8.7h0.8l3.3,8.7H286.6z"/>
	<path class="st0" d="M282.5,9.3l-3.4-8.7h0.8l3.3,8.7H282.5z"/>
	<path class="st0" d="M278.4,9.3L275,0.6h0.8l3.3,8.7H278.4z"/>
	<path class="st0" d="M274.3,9.3l-3.4-8.7h0.8l3.3,8.7H274.3z"/>
	<path class="st0" d="M270.2,9.3l-3.4-8.7h0.8l3.3,8.7H270.2z"/>
	<path class="st0" d="M266.1,9.3l-3.4-8.7h0.8l3.3,8.7H266.1z"/>
	<path class="st0" d="M262,9.3l-3.4-8.7h0.8l3.3,8.7H262z"/>
	<path class="st0" d="M257.8,9.3l-3.4-8.7h0.8l3.3,8.7H257.8z"/>
	<path class="st0" d="M253.7,9.3l-3.4-8.7h0.8l3.3,8.7H253.7z"/>
	<path class="st0" d="M249.6,9.3l-3.4-8.7h0.8l3.3,8.7H249.6z"/>
	<path class="st0" d="M245.5,9.3l-3.4-8.7h0.8l3.3,8.7H245.5z"/>
	<path class="st0" d="M241.4,9.3L238,0.6h0.8l3.3,8.7H241.4z"/>
	<path class="st0" d="M237.3,9.3l-3.4-8.7h0.8l3.3,8.7H237.3z"/>
	<path class="st0" d="M233.1,9.3l-3.4-8.7h0.8l3.3,8.7H233.1z"/>
	<path class="st0" d="M228.9,9.3l-3.3-8.7h0.8l3.3,8.7H228.9z"/>
	<path class="st0" d="M224.9,9.3l-3.4-8.7h0.8l3.3,8.7H224.9z"/>
	<path class="st0" d="M220.8,9.3l-3.4-8.7h0.8l3.3,8.7H220.8z"/>
	<path class="st0" d="M216.7,9.3l-3.4-8.7h0.8l3.3,8.7H216.7z"/>
	<path class="st0" d="M212.6,9.3l-3.4-8.7h0.8l3.3,8.7H212.6z"/>
	<path class="st0" d="M208.4,9.3L205,0.6h0.8l3.3,8.7H208.4z"/>
	<path class="st0" d="M204.3,9.3l-3.4-8.7h0.8l3.3,8.7H204.3z"/>
	<path class="st0" d="M200.2,9.3l-3.4-8.7h0.8l3.3,8.7H200.2z"/>
	<path class="st0" d="M196.1,9.3l-3.4-8.7h0.8l3.3,8.7H196.1z"/>
	<path class="st0" d="M191.9,9.3l-3.3-8.7h0.8l3.3,8.7H191.9z"/>
	<path class="st0" d="M187.9,9.3l-3.4-8.7h0.8l3.3,8.7H187.9z"/>
	<path class="st0" d="M183.8,9.3l-3.4-8.7h0.8l3.3,8.7H183.8z"/>
	<path class="st0" d="M179.6,9.3l-3.4-8.7h0.8l3.3,8.7H179.6z"/>
	<path class="st0" d="M175.5,9.3l-3.4-8.7h0.8l3.3,8.7H175.5z"/>
	<path class="st0" d="M171.4,9.3L168,0.6h0.8l3.3,8.7H171.4z"/>
	<path class="st0" d="M167.3,9.3l-3.4-8.7h0.8l3.3,8.7H167.3z"/>
	<path class="st0" d="M163.2,9.3l-3.4-8.7h0.8l3.3,8.7H163.2z"/>
	<path class="st0" d="M159.1,9.3l-3.4-8.7h0.8l3.3,8.7H159.1z"/>
	<path class="st0" d="M154.9,9.3l-3.4-8.7h0.8l3.3,8.7H154.9z"/>
	<path class="st0" d="M150.8,9.3l-3.4-8.7h0.8l3.3,8.7H150.8z"/>
	<path class="st0" d="M146.7,9.3l-3.4-8.7h0.8l3.3,8.7H146.7z"/>
	<path class="st0" d="M142.6,9.3l-3.4-8.7h0.8l3.3,8.7H142.6z"/>
	<path class="st0" d="M138.5,9.3l-3.4-8.7h0.8l3.3,8.7H138.5z"/>
	<path class="st0" d="M134.4,9.3L131,0.6h0.8l3.3,8.7H134.4z"/>
	<path class="st0" d="M130.2,9.3l-3.4-8.7h0.8l3.3,8.7H130.2z"/>
	<path class="st0" d="M126.1,9.3l-3.4-8.7h0.8l3.3,8.7H126.1z"/>
	<path class="st0" d="M121.9,9.3l-3.3-8.7h0.8l3.3,8.7H121.9z"/>
	<path class="st0" d="M117.9,9.3l-3.4-8.7h0.8l3.3,8.7H117.9z"/>
	<path class="st0" d="M113.8,9.3l-3.4-8.7h0.8l3.3,8.7H113.8z"/>
	<path class="st0" d="M109.7,9.3l-3.4-8.7h0.8l3.3,8.7H109.7z"/>
	<path class="st0" d="M105.5,9.3l-3.4-8.7h0.8l3.3,8.7H105.5z"/>
	<path class="st0" d="M101.4,9.3L98,0.6h0.8l3.3,8.7H101.4z"/>
	<path class="st0" d="M97.3,9.3l-3.4-8.7h0.8L98,9.3H97.3z"/>
	<path class="st0" d="M93.2,9.3l-3.4-8.7h0.8l3.3,8.7H93.2z"/>
	<path class="st0" d="M89.1,9.3l-3.4-8.7h0.8l3.3,8.7H89.1z"/>
	<path class="st0" d="M84.9,9.3l-3.3-8.7h0.8l3.3,8.7H84.9z"/>
	<path class="st0" d="M80.9,9.3l-3.4-8.7h0.8l3.3,8.7H80.9z"/>
	<path class="st0" d="M76.7,9.3l-3.4-8.7h0.8l3.3,8.7H76.7z"/>
	<path class="st0" d="M72.6,9.3l-3.4-8.7H70l3.3,8.7H72.6z"/>
	<path class="st0" d="M68.5,9.3l-3.4-8.7h0.8l3.3,8.7H68.5z"/>
	<path class="st0" d="M64.4,9.3L61,0.6h0.8l3.3,8.7H64.4z"/>
	<path class="st0" d="M60.3,9.3l-3.4-8.7h0.8L61,9.3H60.3z"/>
	<path class="st0" d="M56.2,9.3l-3.4-8.7h0.8l3.3,8.7H56.2z"/>
	<path class="st0" d="M51.9,9.3l-3.3-8.7h0.8l3.3,8.7H51.9z"/>
	<path class="st0" d="M47.9,9.3l-3.4-8.7h0.8l3.3,8.7H47.9z"/>
	<path class="st0" d="M43.8,9.3l-3.4-8.7h0.8l3.3,8.7H43.8z"/>
	<path class="st0" d="M39.7,9.3l-3.4-8.7h0.8l3.3,8.7H39.7z"/>
	<path class="st0" d="M35.6,9.3l-3.4-8.7H33l3.3,8.7H35.6z"/>
	<path class="st0" d="M31.5,9.3l-3.4-8.7h0.8l3.3,8.7H31.5z"/>
	<path class="st0" d="M27.3,9.3l-3.4-8.7h0.8L28,9.3H27.3z"/>
	<path class="st0" d="M23.2,9.3l-3.4-8.7h0.8l3.3,8.7H23.2z"/>
	<path class="st0" d="M19.1,9.3l-3.4-8.7h0.8l3.3,8.7H19.1z"/>
	<path class="st0" d="M14.9,9.3l-3.3-8.7h0.8l3.3,8.7H14.9z"/>
	<path class="st0" d="M10.9,9.3L7.5,0.6h0.8l3.3,8.7H10.9z"/>
	<path class="st0" d="M6.8,9.3L3.4,0.6h0.8l3.3,8.7H6.8z"/>
	<path class="st0" d="M2.7,9.3l-3.4-8.7h0.8l3.3,8.7H2.7z"/>
</g>
</svg>
